<svg xmlns="http://www.w3.org/2000/svg" viewBox="0 0 64 64">
  <rect width="64" height="64" rx="14" fill="#E11B22"/>
  <g fill="none" stroke="#fff" stroke-width="3" stroke-linejoin="round">
    <path d="M32 9 50 15.4c1 .4 1.4 .9 1.4 2v13.2C51.4 41 44.5 46.6 32 51 19.5 46.6 12.6 41 12.6 30.6V17.4c0-1.1 .4-1.6 1.4-2z"/>
    <rect x="22.5" y="19.5" width="19" height="14" rx="2"/>
  </g>
  <g fill="#fff">
    <circle cx="26.5" cy="22.8" r="1.3"/><circle cx="31" cy="22.8" r="1.3"/><circle cx="35.5" cy="22.8" r="1.3"/>
    <circle cx="27" cy="42" r="2"/><circle cx="37" cy="42" r="2"/><circle cx="32" cy="45" r="2"/>
  </g>
  <g fill="none" stroke="#fff" stroke-width="2.4" stroke-linecap="round">
    <path d="M27 37v3.5M32 37v6M37 37v3.5M27 40.5h10"/>
  </g>
</svg>
